# xmcd
#
# Track frame offsets:
#	150
#	13593
#	27704
#	45124
#	59515
#	76287
#	84214
#	94838
#	108304
#	122327
#	137080
#	153900
#	165292
#	177869
#	191398
#
# Disc length: 2755 seconds
#
# Revision: 0
# Processed by: cddbd v1.5.2PL0 Copyright (c) Steve Scherf et al.
# Submitted via: EasyCDDAExtractor 16.0.8.2
#
DISCID=a80ac10f
DTITLE=Συλλογικός δίσκος - Ιστορία ρεμπέτικου τραγουδιού 4
DYEAR=2009
DGENRE=Ρεμπέτικη
TTITLE0=Νικολαΐδης Απόστολος - Όταν συμβεί στα πέριξ [Β. Τσιτσάνης]
TTITLE1=Λίντα Μαίρη - Όμορφη Πειραιώτισσα [Κ. Καπλάνης-Δ. Γκόγκος]
TTITLE2=Πάνου Πόλυ - Γιατί με ξύπνησες πρωΐ [Β. Τσιτσάνης]
TTITLE3=Δούκισσα - Σού 'δωσα διαζύγιο [Μ. Βαμβακάρης]
TTITLE4=Διαμάντη Λίτσα - Άσε με, άσε με να σε λησμονήσω [Γ. Παπαϊωάννου]
TTITLE5=Κόκοτας Σταμάτης - Όμορφη Θεσσαλονίκη [Β. Τσιτσάνης]
TTITLE6=Ζαγοραίος Σπύρος - Οι γκόμενες φορέσανε τραγιάσκες [Μ. Βαμβακάρης]
TTITLE7=Γενίτσαρης Μιχάλης - Γεροντόμαγκα δερβίση [Μ. Γενίτσαρης]
TTITLE8=Μαυράκη Φωτεενή - Απόψε μάννα σε συλλογιέμαι [Γ. Λελάκης-Θ. Δερβενιώτη
TTITLE8=ς]
TTITLE9=Μαργαρίτης Γιώργος - Κάποια μάννα αναστενάζει [Μ. Μπακάλης-Β. Τσιτσάνη
TTITLE9=ς]
TTITLE10=Πάνου Πόλυ - Σκαλοπάτι, σκαλοπάτι [Γ. Λαύκας-Χ. Βασιλειάδης]
TTITLE11=Δούκισσα - Ο μπουφετζής [Γ.Μπάτης-Γ.Παπαϊωάννου-Δ.Σέμσης]
TTITLE12=Σκαρπέλης Κούλης - Ο γεροκατάδικος [Κ. Σκαρπέλης]
TTITLE13=Λίντα Μαίρη - Τα νειάτα δεν τα χόρτασα [Γ. Παπαϊωάννου-Χ. Βασιλειάδης
TTITLE13=]
TTITLE14=Διαμάντη Λίτσα - Τα λερωμένα τ' άπλυτα [Β. Τσιτσάνης]
EXTD=
EXTT0=
EXTT1=
EXTT2=
EXTT3=
EXTT4=
EXTT5=
EXTT6=
EXTT7=
EXTT8=
EXTT9=
EXTT10=
EXTT11=
EXTT12=
EXTT13=
EXTT14=
PLAYORDER=
